<svg xmlns="http://www.w3.org/2000/svg" viewBox="0 0 800 800" fill="none">
  <path d="M418.0 400.0 L418.8 400.9 L419.5 402.0 L420.2 403.1 L420.9 404.2 L421.4 405.5 L421.9 406.8 L422.3 408.1 L422.6 409.6 L422.9 411.0 L423.0 412.6 L423.0 414.1 L423.0 415.7 L422.8 417.3 L422.6 419.0 L422.2 420.7 L421.7 422.3 L421.1 424.0 L420.4 425.7 L419.5 427.3 L418.6 429.0 L417.5 430.6 L416.4 432.1 L415.1 433.7 L413.7 435.1 L412.1 436.6 L410.5 437.9 L408.8 439.2 L407.0 440.4 L405.0 441.5 L403.0 442.5 L400.9 443.4 L398.7 444.2 L396.4 444.9 L394.1 445.5 L391.7 446.0 L389.2 446.3 L386.7 446.5 L384.1 446.5 L381.5 446.5 L378.8 446.2 L376.2 445.8 L373.5 445.3 L370.8 444.6 L368.2 443.7 L365.5 442.7 L362.9 441.6 L360.2 440.2 L357.7 438.8 L355.2 437.1 L352.7 435.3 L350.3 433.4 L348.0 431.3 L345.8 429.0 L343.7 426.6 L341.6 424.1 L339.7 421.4 L338.0 418.6 L336.3 415.7 L334.8 412.6 L333.4 409.5 L332.2 406.2 L331.2 402.9 L330.3 399.4 L329.6 395.9 L329.1 392.3 L328.7 388.6 L328.6 384.9 L328.6 381.1 L328.9 377.3 L329.3 373.5 L330.0 369.7 L330.9 365.9 L331.9 362.1 L333.2 358.3 L334.7 354.5 L336.4 350.8 L338.3 347.2 L340.5 343.6 L342.8 340.1 L345.3 336.7 L348.0 333.4 L351.0 330.2 L354.1 327.1 L357.4 324.2 L360.9 321.5 L364.5 318.9 L368.3 316.4 L372.3 314.1 L376.4 312.1 L380.6 310.2 L385.0 308.5 L389.5 307.1 L394.1 305.9 L398.8 304.9 L403.6 304.1 L408.5 303.6 L413.4 303.3 L418.4 303.3 L423.4 303.5 L428.4 304.0 L433.4 304.8 L438.4 305.8 L443.4 307.1 L448.4 308.7 L453.3 310.5 L458.2 312.6 L463.0 315.0 L467.7 317.6 L472.3 320.5 L476.7 323.6 L481.1 327.0 L485.2 330.6 L489.3 334.5 L493.1 338.6 L496.8 342.9 L500.2 347.4 L503.5 352.1 L506.5 357.1 L509.3 362.2 L511.8 367.5 L514.1 372.9 L516.1 378.5 L517.9 384.2 L519.3 390.0 L520.5 396.0 L521.4 402.0 L521.9 408.2 L522.2 414.3 L522.1 420.6 L521.8 426.8 L521.1 433.1 L520.0 439.4 L518.7 445.6 L517.0 451.8 L515.0 458.0 L512.7 464.0 L510.0 470.0 L507.1 475.9 L503.8 481.7 L500.2 487.3 L496.3 492.8 L492.1 498.1 L487.6 503.2 L482.8 508.1 L477.8 512.8 L472.5 517.2 L466.9 521.4 L461.2 525.3 L455.1 529.0 L448.9 532.3 L442.5 535.4 L435.9 538.2 L429.1 540.6 L422.1 542.7 L415.1 544.4 L407.9 545.8 L400.6 546.8 L393.2 547.5 L385.8 547.8 L378.3 547.7 L370.8 547.2 L363.2 546.4 L355.7 545.2 L348.2 543.5 L340.8 541.5 L333.5 539.1 L326.2 536.4 L319.1 533.2 L312.0 529.7 L305.2 525.8 L298.5 521.5 L292.0 516.9 L285.7 511.9 L279.6 506.6 L273.8 501.0 L268.3 495.0 L263.0 488.8 L258.0 482.2 L253.3 475.4 L249.0 468.3 L245.0 461.0 L241.4 453.4 L238.1 445.6 L235.3 437.7 L232.8 429.5 L230.7 421.2 L229.0 412.8 L227.8 404.3 L227.0 395.6 L226.6 386.9 L226.6 378.2 L227.1 369.4 L228.1 360.6 L229.5 351.8 L231.3 343.1 L233.6 334.5 L236.3 325.9 L239.5 317.4 L243.1 309.1 L247.2 300.9 L251.7 292.9 L256.6 285.1 L261.9 277.6 L267.6 270.2 L273.7 263.2 L280.1 256.4 L287.0 249.9 L294.1 243.8 L301.7 238.0 L309.5 232.6 L317.6 227.5 L326.0 222.8 L334.7 218.6 L343.6 214.8 L352.7 211.4 L362.1 208.5 L371.6 206.0 L381.2 204.0 L391.0 202.5 L400.9 201.5 L410.8 200.9 L420.9 200.9 L430.9 201.4 L441.0 202.4 L451.0 203.9 L461.0 205.9 L470.9 208.4 L480.7 211.4 L490.4 215.0 L499.9 219.0 L509.3 223.5 L518.4 228.5 L527.3 234.0 L536.0 240.0 L544.4 246.4 L552.5 253.2 L560.3 260.5 L567.7 268.1 L574.7 276.2 L581.4 284.7 L587.6 293.5 L593.5 302.6 L598.8 312.1 L603.8 321.8 L608.2 331.8 L612.1 342.1 L615.6 352.6 L618.5 363.3 L620.8 374.2 L622.7 385.2 L624.0 396.3 L624.7 407.6 L624.8 418.8 L624.4 430.2 L623.4 441.5 L621.9 452.8 L619.8 464.1 L617.1 475.2 L613.8 486.3 L610.0 497.2 L605.6 508.0 L600.6 518.5 L595.1 528.9 L589.1 538.9 L582.6 548.7 L575.5 558.2 L568.0 567.4 L559.9 576.2 L551.5 584.6 L542.5 592.6 L533.2 600.1 L523.4 607.2 L513.3 613.9 L502.8 620.0 L492.0 625.6 L480.9 630.7 L469.5 635.3 L457.8 639.2 L446.0 642.6 L433.9 645.5 L421.6 647.7 L409.3 649.2 L396.8 650.2 L384.2 650.6 L371.6 650.3 L359.0 649.4 L346.4 647.8 L333.9 645.6 L321.5 642.8 L309.1 639.3 L297.0 635.2 L285.0 630.5 L273.2 625.2 L261.7 619.3 L250.4 612.8 L239.4 605.7 L228.8 598.0 L218.6 589.8 L208.7 581.1 L199.3 571.8 L190.3 562.1 L181.8 551.8 L173.8 541.2 L166.3 530.1 L159.4 518.6 L153.0 506.8 L147.2 494.6 L142.0 482.1 L137.4 469.3 L133.5 456.2 L130.2 443.0 L127.6 429.5 L125.6 415.9 L124.3 402.2 L123.7 388.4 L123.9 374.5 L124.7 360.6 L126.2 346.8 L128.4 332.9 L131.3 319.2 L134.9 305.6 L139.2 292.2 L144.1 278.9 L149.8 265.9 L156.1 253.1 L163.1 240.7 L170.7 228.5 L178.9 216.8 L187.7 205.4 L197.1 194.4 L207.1 183.9 L217.6 173.9 L228.7 164.4 L240.2 155.5 L252.2 147.1 L264.7 139.3 L277.5 132.1 L290.8 125.6 L304.4 119.7 L318.3 114.4 L332.5 109.9 L346.9 106.1 L361.5 103.0 L376.4 100.6 L391.3 99.0 L406.4 98.1 L421.6 98.0 L436.7 98.6 L451.9 100.0 L467.0 102.2 L482.0 105.1 L496.9 108.8 L511.6 113.3 L526.1 118.5 L540.4 124.4 L554.4 131.0 L568.1 138.4 L581.5 146.5 L594.4 155.2 L607.0 164.6 L619.0 174.7 L630.6 185.3 L641.7 196.6 L652.2 208.4 L662.2 220.8 L671.5 233.7 L680.2 247.1 L688.2 260.9 L695.5 275.2 L702.2 289.8 L708.1 304.8 L713.3 320.2 L717.7 335.8 L721.3 351.6 L724.1 367.6 L726.2 383.8 L727.4 400.1 L727.8 416.5 L727.4 433.0 L726.1 449.4 L724.0 465.8 L721.1 482.2 L717.4 498.3 L712.9 514.4 L707.5 530.2 L701.4 545.7 L694.4 561.0 L686.7 576.0 L678.2 590.5 L669.0 604.7 L659.1 618.4 L648.4 631.7 L637.1 644.4 L625.2 656.5 L612.6 668.1 L599.4 679.1 L585.6 689.4 L571.3 699.0 L556.6 707.9 L541.3 716.1 L525.6 723.5 L509.6 730.2" stroke="#6274f2" stroke-width="58" stroke-linecap="round"/>
</svg>
